/* XPM */
static char *espace_1_png__1_1685548928[] = {
/* columns rows colors chars-per-pixel */
"64 64 223 2 ",
"   c #010101",
".  c #0A0702",
"X  c #0A0A0A",
"o  c #160B02",
"O  c #011B04",
"+  c #1B1301",
"@  c #1C170A",
"#  c #0F1112",
"$  c #151415",
"%  c #1D1B1C",
"&  c #271A02",
"*  c #2C130F",
"=  c #371B03",
"-  c #211E1E",
";  c #103219",
":  c #3B2403",
">  c #2B2618",
",  c #211E20",
"<  c #252222",
"1  c #292525",
"2  c #2C2827",
"3  c #2B2929",
"4  c #322E2C",
"5  c #2D312B",
"6  c #35302E",
"7  c #393534",
"8  c #3A3636",
"9  c #353838",
"0  c #501102",
"q  c #721100",
"w  c #472902",
"e  c #482801",
"r  c #4A3206",
"t  c #553502",
"y  c #4A3412",
"u  c #663903",
"i  c #6F350C",
"p  c #753D02",
"a  c #433C3A",
"s  c #115700",
"d  c #176B0A",
"f  c #2C6D1E",
"g  c #357214",
"h  c #1B672A",
"j  c #316D24",
"k  c #2A7727",
"l  c #347825",
"z  c #34772B",
"x  c #397B29",
"c  c #2A7935",
"v  c #337E35",
"b  c #397D30",
"n  c #564A0F",
"m  c #6A4B0A",
"M  c #794803",
"N  c #795102",
"B  c #4A7A1D",
"V  c #47423E",
"C  c #57493F",
"Z  c #634A2A",
"A  c #437A28",
"S  c #407E32",
"D  c #4A7E34",
"F  c #527F39",
"G  c #453F43",
"H  c #3E4746",
"J  c #347F42",
"K  c #4A4444",
"L  c #484646",
"P  c #564C48",
"I  c #534C4C",
"U  c #5A524E",
"Y  c #554E52",
"T  c #584F54",
"R  c #455257",
"E  c #575757",
"W  c #5B5355",
"Q  c #5D555A",
"!  c #645A58",
"~  c #645B5C",
"^  c #5A794E",
"/  c #69615D",
"(  c #72675E",
")  c #575E61",
"_  c #655C62",
"`  c #695F63",
"'  c #6C6264",
"]  c #6D636A",
"[  c #746866",
"{  c #71666B",
"}  c #74696C",
"|  c #756B72",
" . c #7A6E73",
".. c #707275",
"X. c #7D7278",
"o. c #891400",
"O. c #9A1800",
"+. c #AA1C00",
"@. c #8C2D01",
"#. c #AF2A01",
"$. c #C82501",
"%. c #D62700",
"&. c #D03B08",
"*. c #EA2B00",
"=. c #F52D00",
"-. c #865506",
";. c #965D05",
":. c #995511",
">. c #986608",
",. c #A36807",
"<. c #B77601",
"1. c #AE6F13",
"2. c #AF7519",
"3. c #8C6629",
"4. c #AD7627",
"5. c #C2680F",
"6. c #A95241",
"7. c #816F62",
"8. c #82757B",
"9. c #867878",
"0. c #1F8E25",
"q. c #318732",
"w. c #398332",
"e. c #368836",
"r. c #398438",
"t. c #469104",
"y. c #48AD00",
"u. c #4D862A",
"i. c #418332",
"p. c #4A8431",
"a. c #4C8A33",
"s. c #428538",
"d. c #48863B",
"f. c #428B39",
"g. c #4A8B3A",
"h. c #548A37",
"j. c #599338",
"k. c #629238",
"l. c #2F8441",
"z. c #388943",
"x. c #3D914C",
"c. c #448B44",
"v. c #4B8D41",
"b. c #528E41",
"n. c #578C45",
"m. c #499345",
"M. c #539343",
"N. c #53954A",
"B. c #5B964A",
"V. c #599948",
"C. c #489853",
"Z. c #5C9750",
"A. c #529953",
"S. c #5C9D53",
"D. c #6E964C",
"F. c #649948",
"G. c #639C55",
"H. c #58A24C",
"J. c #5BA356",
"K. c #67A659",
"L. c #70A652",
"P. c #5E9A63",
"I. c #6AAA63",
"U. c #76AC66",
"Y. c #78B468",
"T. c #73B770",
"R. c #BA8705",
"E. c #BA8328",
"W. c #B98934",
"Q. c #C98702",
"!. c #D48B00",
"~. c #CB9506",
"^. c #D99601",
"/. c #E29C01",
"(. c #DCAA03",
"). c #EAA902",
"_. c #E8B50C",
"`. c #F5B502",
"'. c #F7BB02",
"]. c #CA9335",
"[. c #EBC202",
"{. c #F8C702",
"}. c #FBD402",
"|. c #FCDC02",
" X c #FFE602",
".X c #FBE61A",
"XX c #959F61",
"oX c #CD9B49",
"OX c #D3A653",
"+X c #DEB25E",
"@X c #E3AF5C",
"#X c #D9B366",
"$X c #E5BB68",
"%X c #E1BE71",
"&X c #EFDE51",
"*X c #E8C16E",
"=X c #E9C576",
"-X c #6A7B84",
";X c #757792",
":X c #7376A6",
">X c #867B84",
",X c #768692",
"<X c #79A689",
"1X c #6E8AB1",
"2X c #5A9CD5",
"3X c #678DC9",
"4X c #5BA7DD",
"5X c #8E8990",
"6X c #919DA3",
"7X c #A3AAA4",
"8X c #AAB4B9",
"9X c #EBCB83",
"0X c #EED593",
"qX c #F1D997",
"wX c #E0D3A5",
"eX c #F4E3A6",
"rX c #F6E7AD",
"tX c #B3BEC3",
"yX c #BDC6C9",
"uX c #D0D3D2",
"iX c #DDE2E2",
"pX c #E6E7E7",
"aX c #FBFBFB",
/* pixels */
"j.L.L.A n.K.b S Y.b J.e.b A.b Z.s.z v.K.M.b v.G.m.w.f.b v.r.N.K.r.c f.g.M.S.x z p.w.e.q.z S.T.f.a.K.L.A n.U.v ^ I.S G.v z S.S N.",
"q.p.K.g.S F.I.d.h.x K.A.A.K.v.b.f.N.f.v.z v.f.v.F.e.s.g.F.g.p.q . v x l g.S.m.s.L.g.m.q.x.U.Z.e.w.g.K.n.b G.I.F d.b I.N.N.I.v.b.",
"r.f.V.g.K.S.K.s.D F.L.g.b i.S p.K.x j N.i.N.s.s.i.i.M.V.  X o.$.*   f.g.i.w.s.m.h.w.g.0.d.B.l m.r.c.N.g.K.G.I.S a.F.U.v.w.i.z p.",
"c.f.r.s.U.d.B.S n.U.H.w.x i.n.F.S.l e.Y.r.d.N.x x x h.% 0 * %.*.q 2 X   B.z j r.p.u.H.g.d.n.h.XXm.s.r.d.Y.i.n.S F.L.B.S i.x h.G.",
"e.k N.N.r.l K.S F.F.S i.Z.n.b.n.l M.T.S.x z Z.w.f.e.L o O.+.=.=.q   q q   s.r.s.K.u.e.H.h.n.K.Z.e.k N.N.s.f I.b F.B.x g.S.g.h.V.",
"v.J.K.s.c.v.I.s.a.a.i.B.N.w.i.V.x A.J.x J.i.s.N.e.z.  o.$.*.=.=.%.+.$.X L   v.N.S.l k a.i.D N.j v.S.K.r.f.m.I.D d.p.i.N.V.x i.M.",
"D.Y.G.g V.K.v.v.w.x v.A.c.S N.Y.K.b z b.Y.      w.b.  o.%.=.=.=.*.%.o.* * 9     w.v f.i.D j.v.c F.U.D.z B.I.m.N.p.b v.A.m.r.V.U.",
"k.A h.p.x f.z c.L.x r.z.r.s.D     5   T.  3 m % b.e.5 0 %.=.=.=.*.$.o.q * % i %   e.J.i.    r.z.k.D h.b b c.z c.K.i.d.r.q.f.e.e.",
"h.u.u.F.p.p.g.K.k.q.c.j.u.I.T.X ].y   L   t OX.   $ X o %.%.=.=.$.O.o.o H . OXM X L X * E.y J.h.a.i.l K.A h.d.L.k.q.z.k.u.I.I.w.",
"h.j.j.F.j.M.a.p.i.p.K.S.S b.G.o oXoX:.$ 3 3.eXX   ; ; X +.%.*.*.#.o.X ;   . wX].$ 3 M oXOXy v.x a.M.k.B.b.n.h.h.i.h.F.K.w.b.S.m.",
"s.V.N.i.g.g.g.p.q.u.k.z.c B u.% 3.%X#X4.w OXrX4.@ ; O s @.o.*.+.@.r ; O % -.qX*Xm m OX%XW.>   h.s.M.Z.x b.S d.v.c u.u.x.k A u.l.",
"z s.z.z M.x p.K.c.s.B v z.A a.  y oX5.6 a 9XrX9X@.@.@.t.t.u +.q m g M @.@.OXrXeX3.> 1.].3.%   S.z s.v.l N.x f.G.x.p.B r.q.D g.A.",
"v r.f.r.K.f.a.M.j.m.f.F.n.r.c.Y.w 2.e.0.h 4.eX#X#.+.*.@.t.t.g g y.-.=.$.O.oXeX#X; 0.h 4.m j N.v z r.r.s.S.m.s.m.B.m.m.n.F.z.c.Y.",
"m.m.r.z N.V.g.x j.z.l.j.k.x.l.j.w n N.0.h n W.5.$.*.=.&.t.y.y.y.t.,.=.=.%.&.].M ; 0.0.h i N.v.e.N.Z.b b v.J.r.z u.e.r.h.j.l.J j.",
"Z.j.s.x b g.f.f.p.w.w.i.i.f.v x & h J P.P.E n i N 6.$.%.M t.y.t.M $.$.6.Z i t ) P.P.l.d y I.n.x.F.B.i.b b v.s.i.a.r.d.b b.S c.l ",
"a.p.a.K.s.x s.J.e.j.F.x.c u.F.  3 <XtXpX8XT O s h.yX7X0 $.n y.g $.q XXuXP.d . E 1XiXuX<XH   G h v.S b.Z.g.z i.J.w.j.L.l.q.B D.C.",
"z.c m.b.g j.U.h.k z.s.x B.n.X -XuXaXaXiX> W.OXd t.7XpX+ a s d s 4 , uXuXt.d XXOXi 6XaXaXiX5X$ L z.v m.A.l n.U.a.c r.c.x B.n.V.A ",
"x.c c.N.S b h.u.x.z r.x b.j.6XpXaXaXpX+ oXqXrXE.g t.t.g 4.+X*X*X].B t.t.B >.0XeX+Xy yXaXaXaX8X# G c c.N.p.i.h.u.c.c b x b.h.S M.",
"c S.I.h.i.d.d.s.k f.I.a.l N.iXaXaXiX5Xn 9XrXrX=XOX=X9XOX#XqXrXeX#XoX%X9X@X%XeXrXqXZ Y.uXaXaXiX-X  J.I.b.p.g.v.w.c f.K.d.l N.f.I.",
"z K.K.w.g.S.m.r.a.B.V.i.w.Y.8XyX6XE X E.9XrXrX0XrXrXrX0X#X9XrXqXOXqXrXrXrX0XeXrXqX].+ L ,XyXyX-X  I.K.i.v.Z.N.r.g.N.F.i.s.T.v.c.",
"f.v.l l Z.Z.r.v N.v.j i.m.9 -XE 9     E.*XqX=X=XrXrXrXrXrXrXrXrXrXrXrXrXrX9X%XeX*X].o   3 R -XV   v.x x F.Z.r.v V.g.f i.b.Z.v c ",
"b g.v.u.d.g.s.e.k N.s.i.  % 9 X X w + ;.oX+X>.*X=XrXrXrXrXeX*XeXeXrXrXrX0X*X>.@XOX2.+ u X # 9 # L c g.i.g.f.s.r.x h.i.p.i.d.n.m.",
"b N.I.K.x d.Z.s.c m.v.f   9 . ,X) & -.w -.1.0 OX*X*XqX0X=XoX3.].$XqXqXqX%XOXr ,.>.w -.: 9 ,X# 5   v I.K.x g.Z.f.v f.c.l n.U.K.z.",
"A.z M.I.M.g.B.r.r.q.K.i.  :   H ,   & M r u u m oX*X*X$X].t   : 4.@X$X$X+X-.u M y M =   # 9 X w - b N.U.M.g.N.x e.e.S.b B.G.S D ",
"XXJ.l b.A z k h.G.r.N.  3 N M         o e e M u : ..uXP +       o a uX5X= t p u & =         w <.%   Z.f.k l b v.S.g.x.c q.e.l H.",
"f.e.q.d.G.q.m.V.b.z S 9 m ).^.M .   H ..: e u p e . -X  = o.o.o.0 o -X  = M p . u R R   . t !.`.>.5   r.A.b m.M.M.x z D J.g.x g.",
"x c.c.g.I.z.f.F.p.D 5 N |. X}.).N = H R m u e p w $ . o o.O.O.O.o.=   - = p w w >.L R & u ^.{. X|.,.5   I.v.b.B.s.i.S G.U.n.p.B.",
"D J.l.N.b.z.k n.M.c.t |. X X X`.!.<.u o ;.<.o @.-.w + E o.*.*.*.+.P = * -.-.. <.<.& t <.Q.). X X X XN % A.v.x h.m.g.F U.P.d.m.G.",
"D A.k b v.q.f v.N.% ~. X X X X|.).!.-.o ;.!.+ >.>.p 5XuXZ oX+X@X3.6X6Xp ;.>.o !.<.& u !./.{. X X X X).X L s.j h.m.e.k F n.D c.q.",
"h.e.c z S.v q.n.  u }. X X X X|.`.^.o   r !.+ >.].0XrXrXrXrXrXrXrXrXrXrXoX>.o !.-.    !.`.|. X X X X X-.    s.b.q.q.c c.v b c.q.",
"F.e.q.n.P.v w.  % : (.|. X X X X{.<.+   o >.e m 9XrXrXrXrXrXqXrXrXrXrXrXqX3.= Q.&     ,.'.|. X X X X{.t $   f.b.f.s.N.N.r.z s.Z.",
"D.r.k F.n.w.w.D.    r m `.|. X X|.-..   : <.<.+ @XeXrXrXrX%X4.*X0XrXrXrX*Xy >.<..     t }. X X X[.>.t     2   M.L.A M.N.r.i.p.F.",
"n.S b.s.f h.I.$ ) ) X   + M ^.{.).t   o !./.!.t Z $X%X*XOXt + > W.$X=X$X3.w Q.<.:     + ).'.^.>.+ .   L ..%   i.g.x f.k f.m.g.M.",
"r.f.N.f.g.B.J.$ 8X8X$     $ X     X   ^.`.`.<.;.t * $ @ @ 3.].W.& * & & : ;.!.'.<.&   .     . # X   X 6XyX9 j.e.g.a.K.f.f.i.f.f.",
"r.J.N.f.m.} ! % H H X   3 6X..    9 X `.`.`./.;.,.].oX+X=X$X*X$X%X$XoXoX2.,.`.`.).-.. R     ) 8XH     9 R 3   W / f.M.e.m.N.v.r.",
"x s.w.w.c.8 V   + +     3 6X..    9 X }.}.{.`.<.1.E.E.2.E.E.W.4.E.4.4.4.2.Q.`.`.`.).& R     ) 8XH     . & %   I L 9 f.g g.S.B.s.",
"g.b z d.g.! ! K r ^.m     $ X     X    X X X`.!.;.].].$X$X$X+X+X$X#X].].,.^.`.|. X{.+ #     O $ X   t ^.-.q.n.! / ! V.i.s.w.N.r.",
"K.g.n.Z.[ ! ' } t '. X XR.r & & + m & >. X X{.).<.,.,.,.oX@X@X+XoX1.,.,.<.). X X XR.& N + + & & ,.{. X|.-.e.8.] [ [ [ m.m.s.v.x ",
"M.i.( [ [ ' [   > ~. X X X X X X|. X).@  X|.`.'.5.1.].1.2.2.2.4.2.2.].4.!.`.|. X Xm R. X X X X X X X X[.y   8.X. .} [ [ N.c.N.z ",
"w.w.P P P ! |   % -. X X X X X X(.{.`.& {.'.'.'.Q.,.:.1.].].].].].].:.;./.`.{. X Xm (.{.'.[. X X X X XQ.X   ' / ] W I U ! z b.e.",
"j.( [ [ ( ! 9.8.  > (. X X X X).,.).;.+ `.`.`.^.Q.<.;.e u M -.-.u e -.Q./.`.`.'.'.n M `.<.~. X X X X{.@ a D >X9.8._ { ' ~ ! i.a.",
" .( [ } [ / { { { X M (.|. X|.).-.. + ^.`.`.`.`.`.).,.            u ,.!.^._.`.`.).^.o X t ). X X X).>.X G.>X>X9. ._ _ _ ! ~ V.S.",
"U ! [ { W Q Q ! ~   X > ,.).).(.n Z (.{.`.`.`.`.`.`.>.  d.d.z m.l u ^.`.`.`.`.`.).Q.: 4 > Q.).).R.y   L { { { ] ' Y Q  . ./ / f.",
"V a L L 8 P ' ` ~ Q Y   > e t : r _. X X}.}.|.}.`.).e 5 A X.' ` w.e ).`.`.`.`.`.{.{.~.e X = r t > 9   T  .| { ` ` a Y _ Q I W w.",
"/ [ { ] G I ! '  .[ !     h.V.X ,X].}. X X X X X{.Q.o   F >X>X;X  > <.`.{. X|. X X X X^.w f.T.f.    9./ >X5X>X| ] 8 ' } [ / / A.",
"! ' ` ` I K I I W ! T I ~ } j.% ,X6XuX_..X.X.X|.^.y G e.>X>X>X>Xx X M `. X X X X X.X~.6XH J.6X1Xk 5X .' { { 9.] Y 4 ~ ~ { ' / m.",
"Y ! T T G 8 G G Y ~ [ 8.L { | H   ..tX5XiXpX_.~.u 9 X 3X3X3X3X3XK.  3 ;.`.}.&X&X&XwXyXR L   k 5X>X{ Q  .[ ` ` ! 4 3 T ~ / / / e.",
"K K T Q I a 6 8. .' _ } ` a ..] -X3 3 9 uX6Xy : 9 X D 3X3X3X3X3X:XN.  5 -.!.yXiX8X,XtX      5X5X>XY X.8.8.9.8.W , 8 W E I P P j.",
"U / [ ] _ I - 3 } [ _ Q Q ! a ` 9.;X1Xa $ # 9 .   K.1X:X;X;X;X:X:X3Xn.  4 + -X8X5XX #   ;X>X>XQ Y ` ` ` { >X' 4 2 Q ' ' ' ! K F.",
"V / ! } } Q a 3 6 L ` | ;X} [ P Q { 8.-X1X1X3X1X3X4X1X1X3X3X3X4X2X4X2XG.j L X   %   S |  ._ G Q 8.8.>XX.{ Q 4 , a P T ! ( ! < d.",
"8 ! ! Q Y a 7 6 - 4 Y { 9.9.9.9.{ I T { X.| -X,X1X3X1X3X4X:X4X4X;X3X4X2X1X2Xc S g.>X{ T 7 T Y _ 8. . .8.` 3 - 4 G G T G P 8 < i.",
"V a K I ! ' _ I 2 - > 8 [ [ 7.9.9.9.` W L T ' [ X.>X>X,X;X-X1X:X:X;X;X-X>X5X8.;X' K G _ } 9.{ Q G { _ 8 4 , G `  .7.{ ! a , h.F.",
"r.4 a P / ' ] E I 8 - - a a 7.9.9.9.9.` Q { _ W E E T W Q _ ` ] ) Q Q T T T Y G Y _ E X.>X>X .| ! , , , 4 G [ 9.8.[ / I 2 2 a.M.",
"c.4 2 4 ! / ' W I 6 6 4 , 6 y a ! 9.[ ! >X>X>X>XX.~ 5X>X' Q _ L Q _ _ _ Q | ] X.X.>XX.L ] ` G 3 , % , 4 8 T [ [ [ ( V < < x i.V.",
"B.Y.6 2 2 V 6 8 Y _ ] Q a 4 4 1 > 2 6 ` X.-X>X5X' ` >X>X;X9.>X_ |  .;X .8.Q >X>X .| } a , , $ , , 4 W ` { { T a P a < < s.e.N.Y.",
"j.u.u.4 > V E Q ! ! ] { ` Q a 2 6 2 - , 4 a V I a ' ] | [ 8.>XT Q ] _ _ _ Y G G 8 4 1 , $ , 1 2 Y ` ] ] ] ` ` ! P 4 2 r.r.m.f.i.",
"j.p.i.F.> 4 W ' ~ ~ W [ { L a W ! I 8 4 < < 2 2 $ 2 - < < < < % , , , , 2 , 1 3 - 2 2 1 7 I ! T a ~ ' ! ! U U Y 7 1 e.F.h.J.T.x ",
"h.V.V.Z.m.% 1 4 P ! ' P 8 W ' ' ` { ' / a 8 4 2 % < - - % % , - < 3 < < 1 , 4 8 8 < W ~ Q T ' } _ K 8 U ! K 2 % - 2 K.J.S M.K.m.",
"p.n.V.i.g.- < 3 < 4 8 % 1 K I Q ! ' ` ! G ' [ ~ ~ ! ! 8 L W W Y Y I 7 I W Q _ _ ' Q G W W ' ' ~ I G - 1 4 - , , 2 D h.e.k A h.r.",
"x s.c.l m.v f.4 1 1 - $ % > 2 1 a I P 8 [ 8.8.9. . . .L X.X. .} } _ T Y ` _ { ] [ ~ P a G a 4 2 < , $ - % % 2 G.m.a.D x r.S f.A.",
"z s.s.r.J.v.f.N.V.3 % k.3 , , , , - - 8 K K L W ! [ ! P [ [ } / ! ! } L ! U L K 8 4 3 - - - , , , % 3 3 % v.s.N.V.g.m.F.F.r.c.Y.",
"n.N.e.z N.B.v.z u.l.c j.j.z.l.> 1 , - - 4 3 2 1 < 3 3 3 2 1 4 6 4 8 K < < 2 2 2 1 % < % - , < 2 N.N.s.z N.Z.c.z h.q.q.n.n.e.c n.",
"G.B.s.z r.v.v.p.a.w.w.i.g.g.s.z q.b F.< > , > < 2 3 - - < % % , % < < $ , , > , 2 2 < % p.D.M.x.Z.B.i.b i.g.d.w.p.r.i.i.g.c.s.x ",
"h.i.r.I.s.x S L.e.k.D.x.c h.N.c.v.F k x.XXn.q.m.j.4 3 < - - - - - % < , 3 2 b J.k.e.z.e.F.D.x c v.S p.K.d.x i.K.q.k.K.f.k D n.m."
};
