/* XPM */
static char *espace_1_png1685449746[] = {
/* columns rows colors chars-per-pixel */
"64 64 235 2 ",
"   c #181516",
".  c #1D1B1C",
"X  c #211E1E",
"o  c #25211F",
"O  c #1E1B20",
"+  c #211E20",
"@  c #252222",
"#  c #292525",
"$  c #2C2826",
"%  c #2B2729",
"&  c #2C292A",
"*  c #322E2C",
"=  c #36302D",
"-  c #332F31",
";  c #363232",
":  c #393534",
">  c #3D3939",
",  c #433B37",
"<  c #423C3D",
"1  c #2C6D1F",
"2  c #287012",
"3  c #37741F",
"4  c #1F7531",
"5  c #2B6D24",
"6  c #297525",
"7  c #277B25",
"8  c #2F772E",
"9  c #317421",
"0  c #387627",
"q  c #3C7A22",
"w  c #34772B",
"e  c #317B28",
"r  c #397B29",
"t  c #2B7733",
"y  c #287C34",
"u  c #347E36",
"i  c #397D30",
"p  c #467A1E",
"a  c #47423E",
"s  c #57493F",
"d  c #447921",
"f  c #4A7F27",
"g  c #417629",
"h  c #417D29",
"j  c #407E32",
"k  c #4A7B30",
"l  c #4A7F38",
"z  c #527E38",
"x  c #453F43",
"c  c #367E40",
"v  c #4A4344",
"b  c #4D4748",
"n  c #4D4649",
"m  c #554C49",
"M  c #534C4C",
"N  c #56504C",
"B  c #5A534E",
"V  c #554E52",
"C  c #584F54",
"Z  c #5B5355",
"A  c #5C5555",
"S  c #5D555A",
"D  c #625B56",
"F  c #615759",
"G  c #645B5C",
"H  c #695E5D",
"J  c #5A7C40",
"K  c #66605D",
"L  c #6B625D",
"P  c #72675E",
"I  c #655C62",
"U  c #695F63",
"Y  c #6A5F76",
"T  c #6C6264",
"R  c #6E6862",
"E  c #6D636A",
"W  c #726665",
"Q  c #736A65",
"!  c #71666B",
"~  c #74696D",
"^  c #796B6C",
"/  c #726A71",
"(  c #756B72",
")  c #7A6E73",
"_  c #776D7A",
"`  c #7C7174",
"'  c #7D737B",
"]  c #867472",
"[  c #827375",
"{  c #897773",
"}  c #82757B",
"|  c #85797D",
" . c #8B7B7D",
".. c #2E822A",
"X. c #298833",
"o. c #318532",
"O. c #398332",
"+. c #3E8A34",
"@. c #328438",
"#. c #398438",
"$. c #328C38",
"%. c #398C39",
"&. c #3E913C",
"*. c #46832A",
"=. c #548627",
"-. c #418332",
";. c #4A8431",
":. c #4C8A33",
">. c #428538",
",. c #48863B",
"<. c #428B39",
"1. c #4A8B3A",
"2. c #568B32",
"3. c #518539",
"4. c #518C3A",
"5. c #5B8E38",
"6. c #48913A",
"7. c #559336",
"8. c #5C933A",
"9. c #628C36",
"0. c #629539",
"q. c #2F8441",
"w. c #388540",
"e. c #358A47",
"r. c #3A8C40",
"t. c #3D914C",
"y. c #428641",
"u. c #438C40",
"i. c #4B8D41",
"p. c #418D4A",
"a. c #4B8E49",
"s. c #558742",
"d. c #528E41",
"f. c #5B8C44",
"g. c #528E49",
"h. c #429241",
"j. c #4B9342",
"k. c #47974A",
"l. c #4B9349",
"z. c #539343",
"x. c #5B9442",
"c. c #529C43",
"v. c #5E9A44",
"b. c #53954A",
"n. c #5B964A",
"m. c #549A4C",
"M. c #5B9B4C",
"N. c #489452",
"B. c #5C9750",
"V. c #529952",
"C. c #5C9D53",
"Z. c #529E5B",
"A. c #678E4B",
"S. c #659946",
"D. c #699649",
"F. c #639C4B",
"G. c #679853",
"H. c #629E55",
"J. c #789D54",
"K. c #58A24C",
"L. c #5CA254",
"P. c #59A557",
"I. c #67A24B",
"U. c #64A354",
"Y. c #69A656",
"T. c #63A45B",
"R. c #6AA65C",
"E. c #6BAA5D",
"W. c #75A959",
"Q. c #6CA662",
"!. c #6CAC62",
"~. c #65AC68",
"^. c #77AC66",
"/. c #69B36C",
"(. c #78B468",
"). c #7EBA73",
"_. c #84A665",
"`. c #87B871",
"'. c #88C17A",
"]. c #5E5F97",
"[. c #665B85",
"{. c #605A9D",
"}. c #5C6D97",
"|. c #6D658A",
" X c #746A88",
".X c #6E738A",
"XX c #777786",
"oX c #686698",
"OX c #766C94",
"+X c #6D789A",
"@X c #787697",
"#X c #5C74B2",
"$X c #6F6FA7",
"%X c #6978A9",
"&X c #7676A6",
"*X c #6679B4",
"=X c #547BC6",
"-X c #857A82",
";X c #8A7D83",
":X c #867C8A",
">X c #857A97",
",X c #847BA5",
"<X c #73859B",
"1X c #5C85B7",
"2X c #6987A9",
"3X c #7687A9",
"4X c #6885B7",
"5X c #7686B5",
"6X c #6894BB",
"7X c #7597B3",
"8X c #5A89C8",
"9X c #5C97CB",
"0X c #598AD4",
"qX c #4E93DE",
"wX c #5899D8",
"eX c #6688C7",
"rX c #648BCA",
"tX c #708EC6",
"yX c #6796C9",
"uX c #6598D5",
"iX c #5DA7D0",
"pX c #5AA7D9",
"aX c #6BA3CA",
"sX c #65A4D5",
"dX c #4D93E7",
"fX c #559AE2",
"gX c #56AAE8",
"hX c #5AB6E7",
"jX c #53B4F2",
"kX c #63A0E0",
"lX c #53CEF6",
"zX c #8D8188",
"xX c #898297",
"cX c #978892",
"vX c #8096B0",
/* pixels */
"7.W.I.h f.R.i j (.i C.%.w V.i B.>.9 i.R.z.i i.H.l.O.>.u ,.#.b.T.#.i h.1.z.M.r w ;.O.&.@.t L.).-.:.E.Y.g n.Q.u J /.j H.#.w C.j b.",
"..:.E.d.h G.Q.>.:.r R.m.V.Q.i.z.,.l.<.i.r i.<.i.v.+.-.1.F.,.;.q <.u r 6 1.B.j.y.Y.j.&.e p.(.C.r ..1.R.8.i C.Q.s.3.i Q.b.b.!.i.d.",
"#.1.z.1.R.B.R.>.;.F.E.i.r -.j ;.E.r 5 m.-.b.>.-.-.-.z.x.F.j *.*.P.#.<.1.-.j >.a.:.O.6.9 ,.A.0 z.#.u.b.1.E.G.Q.-.;.A.!.i.r -.w ,.",
"u.<.#.>.^.,.b.j x.^.M...r -.d.G.C.9 %.^.#.y.M.r r r d.j.b.i 1.M.C.u 1.U.n.e 9 #.;.*.K.6.;.f.1.).h.>.#.>.^.-.g.j S.W.n.i -.r 4.I.",
"%.6 b.l.<.1 R.j S.F.j -.M.g.d.f.e z.).C.i w M.i 1.o.u u t.u p.u.i 5 0 x.M.,.#.>.U.:.<.K.4.f.T.B.#.w l.b.>.1 R.j F.n.r 1.C.1.4.x.",
"i.C.E.>.y.i.!.>.:.:.-.M.b.i -.x.r m.L.w C.-.>.b.r.r.k.y w.u u.#.w b.i.;.j -.1.b.M.e 6 :.h k n.6 i.B.E.#.<.j.Q.l 3.;.-.m.m.r -.z.",
"D.(.H.9 M.E.i.i.-.r i.V.y.j b.(.T.i w i.(.1.>.b.r 6.C.r >.,.d.:.g.).F.>.d.-.#.a.i u 6.-.k f.i.t D.^.F.w B.~.i.a.;.i i.V.u.#.m.^.",
"9.f 2.-.r <.w y.Y.r #.e.#.>.j 1.'.8 b.).z.i b.>.7.v.S.r 4.D.D.d ^.Q.5 1.`.L.i w o.%.P.-.x.Q.#.e.9.k 4.>.i u.w a.U.-.>.#.@.<.+.+.",
"5.*.f F.;.;.1.T.0.u p.8.=.~./.g ,.%.s.1.X.k._.f.:.>.@.y.z.:.u u i j 0 (.C.5 a.i.a.Y.2.0 #.a.B.5.:.-.q U.g =.;.W.5.o.e.0.*.~.~.d ",
"2.8.x.S.7.z.:.;.-.;.U.C.i d.G.y.z 1.X.X.H._.n.9 4.b.w.6 #.z.y.y B.n.i -.,.a.P.w j d.:.:.y.w.y.g :.z.x.n.z.f.3.3.>.4.F.T.#.z.C.a.",
"-.m.b.-.4.1.1.:.@.=.2.t.t p =.e.k.J.E.o.k i.o.A.W.z.u i.M.1.<.P.R.g.<.y.a.g.V.y.M.4.:.M.a.w.b.4.>.z.B.r z.j ,.i.t =.=.t.y d =.q.",
"8 >.y.e z.r ;.U.u.;.d #.w.h :.Z.X.s._.i.,.V.%.W.G.-.u L.U.q w ~.b.>.C.H.a.j 8 V.W.:.6.K.>.,.C.M.w >.i.e b.0 1.H.h.;.d %.@.k 1.Z.",
"u #.<.#.T.1.:.z.8.k.6.S.x.w.p.^.G.e %.j 4.^.f.X.d -.<.O.*.O.-.%.j g.!.<.w a.i u f.0 %.<.r 4.b.#.e >.#.>.C.a.>.l.v.l.k.0.S.w.t.(.",
"l.l.>.e b.M.1.0 7.q.q.5.0.t.q.5.`.%.d.s.o.i.z X.2.M.i.e -.x.z.w r ,.z.O.b./.<.1 9.-.r.e 0 5.d.@.b.B.i i i.P.#.e =.@.q.2.8.@.u 5.",
"M.x.-.r i 1.>.<.;.O.O.-.-.<.i 0 #.i A._.P.X.r d.Y.4.%.i.F.5.1.V.:.r r z.^.E.+.<.J.4.t.u ;.S.A.r.G.n.i i i i.>.>.:.#.>.i d.>.y.0 ",
":.;.:.U.-.i -.P.$.8.I.t.y ;.v.N.d.z 6 l._.s.7 j.8.r t b.8.L R R L ` R :.z.9 e U.9.h e.@.x.S.0 4 i.j d.B.:.e -.L.@.5.I.e.@.d D.N.",
"e.y k.d.9 8.W.3.6 %.y.r n.x.v.i n.x.z.e +.B L Q T Z W ) ` ~ ) U T ' ( W ) R Z R R W L H b.j d.V.e.t l.b.9 8.W.:.t w.y.r n.x.S.q ",
"t.t ,.z.j h 4.;.p.w O.r d.d.i b.9 R T D Z F ~ T E F M W ~ ~ _ U S ! ) ) ` ~ M W [ ) T Z F Z W ~ t.u y.b.;.+.4.;.t.u r r d.4.i z.",
"t C.Q.d.-.1.,.-.6 <.P Q 9 m L H G ~ ) I x I G I ! E v A F Z Z n v S S F W M R ) } ~ ! E v F / ) H A Z 4.:.^ j.-.t <.E.,.0 b.<./.",
"e R.U.#.1.C.a.#.L D D L H C M ( _ _ ' -X( S S C n v m A S S I I U E E ! E G Z n M I S v U I V E } ~ < Z S D H D ,.b.n.-.>.(.i.y.",
"<.i.0 0 M.M.~ D B B D F E ^ S n ( ( | ^ S S I _ ' XX+X2X6X9X1X1XgXpX8X9X4X<X.X~ ~ E V x S ( E V v n ~ ( T H D Z A H 1 O.d.G.u t ",
"i 1.i.;.,.1.> a B F H ~ -X[ | ;X' V S ` ( _ 3XuXwXjX+X X9XqX#X#XfX%X%X1X X4XiX2X2X<XXX' / I I Z I ) [ | | ) H H m v : ;.-.y.a.a.",
"i l.!.U.r :.D D n m G U ( } ;X .E -XzX<X6XpX2X%XwXwX8X=XqXqXwX8XrX4X2X*X4X0XgX%XiX4X6XpX2X` / I I -X} | | ^ F v A L T 9 d.^.T.y.",
"V.8 z.!.z.P H W ~ -X_ E S F Y C ' -X<XiXpXhX9X#X8XrX8X#X{.[.|.|.|.OXOX@X@XOX}.#X8X%X9XlXsXyXXX~ ! n H H W } ;X} E ! R W n.G.r l ",
"_.L.7 P P W W ! } ;X-X;X;XI I } | 7X3XsX*XrX8X].0X#X@XOX&XyXqXdXfX0XeX*X*X*X0X0X#X#X0X*X&XhXfX+X[ -XS ( } } ;X[ ' ) ~ ^ W O.9 I.",
"4.<.o.B m m F ^ ! W ) -X[ U [ } 7X%XiXyXuX*XoX9X#X[.4XuXrX%XoX|.@X@X+X&X*XeX$XoX$XeX=X8XeXgXiX9X+X} ) C ) [ W T U E C m B D r 1.",
"g h.P P ^ P H } ) W H P x >XzXvXkXxX3XsX,X X&XfXoX9X*X X X-X( ' [ | { ] Y oX9XyX&X@XoX8XdX*XOX2XsX' [ ^ n W } | | | G ! W H G n.",
",.^ P W ~ W H ~ ! ! ~ T I _. .sX5XuXvXsX,X,XtXrXwX&X X! U ^ ) ^ ^  .;X[ T U |.0XgXoX|.oXwXjXqXpX4X&X . .F -X-X-X| ) I I G S L C.",
"k B D T E A F F F G F V I } | sXhXtXkXpX>X>X*XkXfX>X-X-X[ _ U U _  . .[ ^ ! Y {.dX8X[.OX*XlXeX6XaX2X| } C ! ! ! E ! V S ` ' L T ",
"z a v v n : b W U I S V F [ [ sX>X*X0XlX$X>X,XkXgX,X>X:X-X' ' ! I ) ' [ ' ( |.#X=XwXoX[.$XhX&XtXhX3X[  .C ) ! ~ U I > V I S b A ",
"S.L W ! E a v F W ^ ! F M [ ) yXuXlX*XjXfX>XOXOXhXsX>X:X>X:X:XxX-X! ! -X' XXOXpX].qX[.[.*X8X|.sXuX:X .| P ;X:X;X( E > T ~ R L L ",
"D.D T T U M n M V Z S Z n G ) XXsX@X2XrXkX=X*X>XOX*XuX5X>XxXcXcX:X:X_ [.@XeXeX$X#X8X|.oXwXwXaX7XaX .cX~ U ! ! ' E V * F U ! R G ",
"f.N A Z C n : x x x I ! [ x U [ <XgXjXiX4XuXeXyXtX5X&X*XeXeXtXtXtXtXrXuX9X].[.%XwX$X4XuXtX7X7X7X:X;X! S _ ! T H F * % C H U H H ",
"I v v V C M , = } [ U U [ U x ! E .XpX+X3XrXrXtX&X&XtXeXrXeXeXrX*X*X,X,XOXOX8X8X].uXtX3X5XaX7XcXcX' M ' } -X .[ C X : Z S m n M ",
"A A L E E U n X ; ^ ( U C C S x T ' ' 4XjXjX3XtXrXrXyX5X&XOXOX@X,X&X*XtXuX0X=XrX4X$XpXlXuX<X-X;XS C E T U ~ ;XT & & F U T W D n ",
"O.a H H ! ! F < % - x U ( [ [ Y N Z ( -X.X7X2XiX3XtXhX5X4XeX6X9XgXwXjXfX=X$XuXgXhX4X1X+X( ( F n Z } ' | [ ! Z * X < M C F L D # ",
"1.: D A F V < = = X * m T [ { _.{ ~ n C / ' ) XX<X6X6X3XyXwX+XpXwX.X9XfXuX7XuXuX3X:X:X! C : V V U } ) _ } I & + = < v M a m : @ ",
"R.a > m M H U I C % X + a Q Q P  . .` T A v C E ! } -XXX<X+X+X3X2X+X<X+XXX:X:X:X' U x x I ! } ! Z v E I > % # x W ~ [ W D , X e ",
"4.+.* > B D ! Y C n ,   o = s ] { { } } T S / I C M S S S S I E I I I S V V C n n V I F ' -X} [ ( S # % + % v W ] } W L B % & w ",
"#.O.* $ = D H U S M ; = = o $ = , H { W S XX-X-XzX} I ;X-XT S I n S I I I I / / ) ' -X) n U Y x % O   + ; : n ! ^ ^ P a + + i.<.",
"7.F.,.; @ * a = : Z T E A v & & @ $ $ = H ' ' zXzXR I zX-X' } -XI _ _ ' _ ' S XX;X` ( ( < X . . O O ; V U ~ E Z , a , + % h -.:.",
"x.:.j >.* @ a A D A S E E T S > $ = $ X @ * > v M < I E ~ ) [ XXC S E T I T n v v > * # +   + + @ M T E E T T L D m * % u.,.c.M.",
"Y.d.n.j -.@ * A L K H Z E E v v B F M > & @ + % %   # X @ @ @ + O . O . + % + # % X # % % : b S S > U T D D B B B = % H.b.#.<.<.",
"1.-.!.>.>.E.. @ = b D P M ; A R T L W W L a : ; % . @ o . . . @ O @ % % @ % @ * : : @ Z G S Z T E I v ; B D v % X X & -.j.u 6 i ",
"u >.^.,.g.).X o $ # * : . $ a N A H R L F v T ~ R H Z F ; M N V V M M ; M S S G G T S x Z Z U W K M v @ $ = . . + # j 9 b.u.u m.",
"y.l.C.-.n.!.i 5 * # $ X   X o # # > m m > T ` ` [ ^ ( ) n ` } ` ~ / I Z Z I H ! E W H M , a a * % # +   @ . . # b.!.<.e U.m.8 l.",
"#.,.q O.G.z.u.l.#.y.# O n.# X X X X . . > v a m D K R K M ^ Q ^ K Z A Q n D B b v > * % o X X X @ + . # & . >.u.>.u.#.<.L.j.0 +.",
"u.M.0 7.v.1 <./.V.u.u %.z.1.,.v.@ @ o X X & & $ & @ & % $ $ # * ; - > v @ @ % $ # # X @ X X X X % s.o.1.x.7 k /.Z.u #.b.1.-.1.8.",
"8.^.Y.p 1.G.#.,.(.w H.i #.l.>.M.<.e j.E.X + @ # @ @ $ X X @   . + . o @   + + # X # % @ . n.^.+.7.W.Y.p z.R.i >.^.,.T.y.6 V.j n.",
"h :.E.1.h C.Q.y.n.k !.b.V.H.>.>.>.j.>.1.r ,.-.4.H.-.; & @ @ X X + + . @ . % % y.W.i.%.u z.^.M.O.h 4.W.6.r C.Q.>.3.j R.V.b.Q.i.1.",
"O.,.z.1.T.L.R.,.h x.^.,.-.-.-.4.U.O.2 V.O.n.>.j :.h z.v.F.g :.;.P.i <.z.r >.d.>.3.h <.e >.f.3 c.#.y.b.<.T.C.Q.-.3.F.Y.,.r ,.r -.",
"<.>.@.<.^.,.b.j D.W.H.h i j 4.S.C.0 y.(.-.y.M.i O.e i.z.d.i d.n.L.t 1.Y.z.i u i ;.j M.j.>.s.:.(.u.u.#.-.^.-.b.j D.W.x.j -.j 4.F.",
"w.e l.m.y.1 R.i F.I.>.y.M.z.4.5.0 g.).C.w r V.w k.y @.8 %.u k.i.i i 0 4.F.1.i u G.;.<.K.d.5.H.M.%.8 l.b.<.1 Q.k F.S.j 1.M.1.:.c.",
"u.C.!.:.i.i.R.j g >.r m.b.1.;.F.w a.C.i C.O.>.l.p.#.r.u u u p.w.1 T.d.0 1.>.>.V.n.e e :.d ;.b.6 u.n.E.>.,.d.Q.-.;.;.-.m.b.r -.n.",
"x.(.H.1 M.R.i.y.1.O.u.L.#.j 1.^.Q.i i g.(.y.>.V.r 6.L.-.i +.z.-.i.(.n.,.x.h >.V.@.O.h.+.i d.i.y v.(.F.9 B.R.i.y.i r j.V.y.#.b.(.",
"8.f 2.-.g 1.w i.L.o.7 p.t <.-.d.`.w g.).i.#.b.#.2.x.F.*.5.S.D.d `.H.1 f.).z.u e u #.P.O.z.^.#.q.8.*.5.-.j 1.w <.T.>.#.#.#.h.<.-.",
"5.;.-.F.;.h ,.J.0.u #.5.=.~./.0 y.%.3.z X.k._.f.=.<.#.p.z.1.t y l i 8 (.C.5 V.y.i.Y.2.h c g.H.=.4.*.*.F.;.k =.W.D.e 6.f.,.P./.h ",
"4.x.n.M.z.x.,.;.<.:.Y.P.>.z.Y.u.3.,.X.X.S._.d.9 z.b.u 6 j x.<.t H.b.@.>.i g.Q.u -.4.*.1.,.c >.p <.z.M.M.5.f.3.,.-.1.U.L.-.z.R.j.",
";.n.M.-.1.1.>.d.t d =.e.t d =.e.k._.!.o.k i.o.A.^.z.u w.v.1.%.Z.W.i.<.i.y.g.b.u M.4.:.M.p.j s.,.+.m.M.-.i.,.1.s...k ,.%.6 g 3.%.",
"0 >.u.e l.w 1.T.h.2.*.%.w.r k Z.7 s.^.d.y.V.&.^.I.r u L.U.q w ~.A.i V.L.y.-.w p.W.1.6.C.y.s.C.B.e <.y.e g.i -.H.j.:.;.O.#.j 1.V.",
"w >.>.#.L.i.1.b.v.k.j.S.x.#.p.(.G.e %.-.d._.f.$.d #.<.i +.;.h %.i 1.E.-.0 n.,.%.8.h %.h.r 3.z.>.r >.u.#.R.i.>.b.m.j.j.F.G.#.<.(.",
"g.b.%.0 b.B.y.w =.q.y 9.0.e.u 5.`.$.d.s.o.i.l 7 2.n.y.6 ;.c.d.u ;.1.j.O.g.(.g.6 7.+.r.y 0 f.d.#.b.b.>.e m.n.y.w 3.....f.A.X...f.",
"H.n.j w #.i.y.;.:.o.O.-.1.i.>.r o.j A._.P.o.e i.Y.z.#.i.F.8.1.V.x.r O.z.E.T.#.i 0.4.e.y ;.D.z.e.C.B.j i -.i.>.-.;.#.-.-.1.u.>.i ",
"3.-.#.Q.>.r ,.H.%.0.S.p.y 3.x.p.i.z 6 k._.s...j.0.h e b.S.d 0 V.F.1.e j.n.0 i C.9.+.e.@.F.J.g y i.j ;.H.,.i -.U.o.S.G.1.7 ,.f.r."
};
